#!OML:ASF H:\Terrain\Patient Classification 1\Animal1\Tuesday\Animal1.ASF
:FULLY-SPECIFIED
:DEGREES
2209
root 1.26884 17.8015 1.0713 -712.74 -9.04404 -1.93973
lowerback -5.80786 -1.50794 -0.727228
upperback -1.97097 -2.01442 2.45831
thorax 1.33909 -1.00524 2.79862
lowerneck 13.2907 4.6692 -2.51971
upperneck 0.086742 6.0493 6.03715
head -2.59743 2.79294 2.03179
rclavicle -1.58003e-014 -1.31198e-014
rhumerus -4.01976 -16.9832 -4.68822
rradius 31.6543
rwrist -24.9902
rhand 13.0035 7.71603
rfingers 7.12502
rthumb 37.9691 -18.0916
lclavicle -1.58003e-014 -1.31198e-014
lhumerus -3.05396 12.9327 8.98642
lradius 53.0599
lwrist -29.7934
lhand 32.548 25.734
lfingers 7.12502
lthumb 55.982 43.1377
rfemur -25.4681 16.839 25.1971
rtibia 29.7881
rfoot 27.024 0.970541
rtoes -0.0120243
lfemur -13.1623 -14.0542 -21.2917
ltibia 34.5417
lfoot 36.2251 -2.63992
ltoes 37.1957
2210
root 1.26778 17.8097 1.08538 -712.854 -8.96555 -1.75535
lowerback -5.87943 -1.51472 -0.80816
upperback -2.09794 -2.01545 2.36388
thorax 1.24771 -1.00397 2.74669
lowerneck 13.4829 4.64002 -2.64652
upperneck 0.0843141 5.99667 6.2179
head -2.64527 2.75742 2.11635
rclavicle 2.37509e-014 7.55382e-015
rhumerus -4.02807 -17.3246 -4.40136
rradius 31.3615
rwrist -24.4979
rhand 13.6134 8.04649
rfingers 7.12502
rthumb 38.5448 -17.6024
lclavicle 2.37509e-014 7.55382e-015
lhumerus -2.75571 12.9872 9.31778
lradius 52.9644
lwrist -30.003
lhand 32.5533 25.7683
lfingers 7.12502
lthumb 55.9867 43.1684
rfemur -25.3062 17.0847 24.9759
rtibia 29.7084
rfoot 27.3277 1.07544
rtoes -0.751605
lfemur -12.7508 -14.2482 -21.551
ltibia 34.0945
lfoot 36.2754 -2.87555
ltoes 36.4949
2211
root 1.26289 17.8163 1.09777 -712.755 -8.96619 -1.58712
lowerback -6.08864 -1.52463 -0.96254
upperback -2.31571 -2.01642 2.30307
thorax 1.14301 -1.00161 2.7688
lowerneck 13.831 4.60486 -2.69497
upperneck 0.00601563 5.94453 6.29756
head -2.74012 2.72141 2.1508
rclavicle 3.18242e-014 -2.70347e-014
rhumerus -4.09321 -17.2899 -4.06006
rradius 31.2774
rwrist -24.2957
rhand 14.5244 8.34723
rfingers 7.12502
rthumb 39.4038 -17.0559
lclavicle 3.18242e-014 -2.70347e-014
lhumerus -2.45663 12.9394 9.54051
lradius 52.6324
lwrist -30.0694
lhand 32.5704 25.9339
lfingers 7.12502
lthumb 56.0018 43.3223
rfemur -25.4099 17.3918 24.7274
rtibia 29.7073
rfoot 27.3995 0.874678
rtoes -0.734782
lfemur -12.5775 -14.4434 -21.7292
ltibia 33.6166
lfoot 36.395 -2.90831
ltoes 36.3714
2212
root 1.25566 17.8274 1.11245 -712.613 -8.98171 -1.42229
lowerback -6.40467 -1.58314 -1.16723
upperback -2.46255 -2.08004 2.26735
thorax 1.17667 -1.032 2.83657
lowerneck 13.5079 4.64211 -2.6332
upperneck 0.521856 5.97959 6.2619
head -2.50062 2.75292 2.13048
rclavicle 1.59897e-014 7.55382e-015
rhumerus -3.95381 -17.8208 -3.89963
rradius 31.1087
rwrist -23.5633
rhand 14.9617 9.13395
rfingers 7.12502
rthumb 39.8156 -16.1475
lclavicle 1.59897e-014 7.55382e-015
lhumerus -2.38581 12.88 9.58734
lradius 52.6269
lwrist -30.0419
lhand 32.5297 25.9834
lfingers 7.12502
lthumb 55.9658 43.3996
rfemur -25.5222 17.6214 24.509
rtibia 29.6906
rfoot 27.5003 -0.529877
rtoes 3.38787
lfemur -12.4697 -14.7538 -21.8528
ltibia 33.174
lfoot 36.4834 -1.79089
ltoes 37.8876
2213
root 1.25097 17.8398 1.12321 -712.527 -8.90506 -1.44659
lowerback -6.60085 -1.61855 -1.12728
upperback -2.5765 -2.12803 2.26058
thorax 1.16936 -1.05512 2.80002
lowerneck 12.9464 4.66057 -2.50093
upperneck 1.25225 5.99149 6.19523
head -2.14213 2.78122 2.09386
rclavicle -1.27533e-014 -6.75868e-015
rhumerus -3.98252 -17.9003 -3.67938
rradius 31.1383
rwrist -23.7502
rhand 14.4749 8.94634
rfingers 7.12502
rthumb 39.3571 -16.4704
lclavicle -1.27533e-014 -6.75868e-015
lhumerus -2.31747 12.8155 9.67653
lradius 52.8635
lwrist -30.0344
lhand 32.1706 25.8961
lfingers 7.12502
lthumb 55.6471 43.5561
rfemur -25.5349 17.594 24.5423
rtibia 29.6398
rfoot 27.6482 -0.761392
rtoes 5.02291
lfemur -12.2781 -15.0276 -21.7846
ltibia 32.747
lfoot 36.5219 -0.981004
ltoes 38.8425
2214
root 1.24835 17.852 1.1339 -712.504 -8.75994 -1.432
lowerback -6.6956 -1.63758 -1.07991
upperback -2.74181 -2.15377 2.22815
thorax 1.05019 -1.0658 2.73805
lowerneck 12.8942 4.57959 -2.34143
upperneck 1.56488 5.88734 6.07308
head -2.01075 2.73872 2.03334
rclavicle -9.94545e-015 1.03368e-014
rhumerus -4.28316 -17.1075 -3.20467
rradius 31.3829
rwrist -24.726
rhand 13.7796 7.63687
rfingers 7.12502
rthumb 38.7016 -17.968
lclavicle -9.94545e-015 1.03368e-014
lhumerus -2.07083 12.613 9.76853
lradius 52.764
lwrist -30.0936
lhand 31.9506 25.9257
lfingers 7.12502
lthumb 55.4515 43.7326
rfemur -25.4838 17.6668 24.5187
rtibia 29.5746
rfoot 27.4619 1.46217
rtoes -1.96549
lfemur -11.9777 -15.2666 -21.804
ltibia 32.3023
lfoot 36.5863 -1.09374
ltoes 38.4644
2215
root 1.24581 17.8609 1.15152 -712.599 -8.60987 -1.26578
lowerback -6.803 -1.73223 -1.17363
upperback -2.88512 -2.2712 2.16792
thorax 0.969765 -1.12229 2.71883
lowerneck 13.2923 4.52636 -2.23632
upperneck 1.49708 5.82404 5.89883
head -2.09041 2.70482 1.95461
rclavicle -2.04127e-014 1.19271e-015
rhumerus -4.20436 -17.1469 -2.93034
rradius 31.1716
rwrist -24.3481
rhand 13.5133 6.98036
rfingers 7.12502
rthumb 38.4504 -18.6949
lclavicle -2.04127e-014 1.19271e-015
lhumerus -1.93177 12.4336 9.73942
lradius 52.5309
lwrist -30.3056
lhand 32.2423 25.9511
lfingers 7.12502
lthumb 55.7108 43.5629
rfemur -25.2978 17.8887 24.3335
rtibia 29.5024
rfoot 27.2449 2.52759
rtoes -6.14776
lfemur -11.5505 -15.4148 -22.043
ltibia 31.8357
lfoot 36.7001 -1.59671
ltoes 37.0632
2216
root 1.2448 17.8651 1.16637 -712.737 -8.45735 -1.14933
lowerback -6.80567 -1.89275 -1.24109
upperback -3.04031 -2.47926 2.17169
thorax 0.825921 -1.22331 2.74724
lowerneck 13.6285 4.63467 -2.2812
upperneck 1.52507 5.95152 5.80803
head -2.14449 2.76542 1.91904
rclavicle -1.54431e-014 9.93923e-015
rhumerus -3.80536 -17.553 -2.89506
rradius 30.8754
rwrist -23.6312
rhand 12.962 6.89584
rfingers 7.12502
rthumb 37.93 -18.9224
lclavicle -1.54431e-014 9.93923e-015
lhumerus -2.16686 12.2863 9.67477
lradius 52.6265
lwrist -30.5619
lhand 32.7093 25.4812
lfingers 7.12502
lthumb 56.1248 42.7738
rfemur -25.0815 18.0816 24.2025
rtibia 29.419
rfoot 27.3788 1.55503
rtoes -4.46076
lfemur -11.1295 -15.4632 -22.2198
ltibia 31.3552
lfoot 36.8692 -1.90023
ltoes 36.2123
2217
root 1.24302 17.8729 1.17319 -712.75 -8.38403 -1.10342
lowerback -6.79881 -1.96923 -1.27248
upperback -3.23125 -2.57786 2.20002
thorax 0.633515 -1.26885 2.79078
lowerneck 13.6441 4.7399 -2.44081
upperneck 1.7873 6.05723 5.9192
head -2.07467 2.8173 1.97819
rclavicle -3.2551e-015 -1.27222e-014
rhumerus -3.65532 -17.6962 -2.71385
rradius 30.8523
rwrist -23.3411
rhand 12.6453 7.38683
rfingers 7.12502
rthumb 37.6308 -18.5119
lclavicle -3.2551e-015 -1.27222e-014
lhumerus -2.27067 12.0886 9.74569
lradius 52.6708
lwrist -30.5039
lhand 32.7326 24.9909
lfingers 7.12502
lthumb 56.1455 42.2673
rfemur -25.046 18.3944 24.0748
rtibia 29.2815
rfoot 27.7432 -0.199969
rtoes -0.40334
lfemur -10.8864 -15.4987 -22.2609
ltibia 30.9295
lfoot 36.9415 -1.91459
ltoes 36.0584
2218
root 1.23944 17.8817 1.18133 -712.61 -8.38984 -1.15719
lowerback -6.99755 -1.92955 -1.19648
upperback -3.40331 -2.52765 2.20922
thorax 0.560388 -1.24226 2.75853
lowerneck 13.5713 4.73637 -2.71859
upperneck 2.03811 6.00998 6.25622
head -2.00194 2.78737 2.14549
rclavicle -7.70291e-016 3.57812e-015
rhumerus -3.634 -18.4983 -2.49905
rradius 30.6418
rwrist -22.3701
rhand 14.0545 8.86583
rfingers 7.12502
rthumb 38.9609 -16.6654
lclavicle -7.70291e-016 3.57812e-015
lhumerus -1.9596 11.9982 9.97416
lradius 52.3703
lwrist -30.3364
lhand 32.4616 24.9423
lfingers 7.12502
lthumb 55.9053 42.4052
rfemur -25.0877 18.7246 24.0256
rtibia 29.0369
rfoot 28.2719 -0.856608
rtoes 0.949828
lfemur -10.8217 -15.5304 -22.1693
ltibia 30.6215
lfoot 36.9161 -2.18989
ltoes 35.5019
2219
root 1.23812 17.8931 1.19629 -712.398 -8.33591 -1.2673
lowerback -7.35106 -1.92387 -0.995226
upperback -3.58037 -2.5305 2.20437
thorax 0.564785 -1.24441 2.6323
lowerneck 13.5576 4.71818 -2.82726
upperneck 2.28504 5.9606 6.37981
head -1.92421 2.76227 2.21078
rclavicle -3.11595e-014 -1.63003e-014
rhumerus -3.54644 -19.093 -2.37114
rradius 30.3743
rwrist -21.6346
rhand 14.6841 8.91928
rfingers 7.12502
rthumb 39.5542 -16.4397
lclavicle -3.11595e-014 -1.63003e-014
lhumerus -1.80841 11.8668 10.0688
lradius 52.2468
lwrist -30.3094
lhand 32.3485 25.1404
lfingers 7.12502
lthumb 55.8051 42.6803
rfemur -25.1417 18.9131 24.0508
rtibia 28.8215
rfoot 28.6167 -0.553338
rtoes -0.154067
lfemur -10.8118 -15.6709 -21.9908
ltibia 30.3027
lfoot 37.0257 -2.00714
ltoes 36.133
